<svg width="432" height="322" viewBox="0 0 432 322" fill="none" xmlns="http://www.w3.org/2000/svg">
<g clip-path="url(#clip0_5509_74)">
<path d="M289.663 203.255C321.747 179.737 359.639 165.416 399.258 161.833C409.807 160.712 420.432 160.482 431.02 161.145V110.94C373.799 108.128 317.471 125.958 272.291 161.185C227.112 196.411 196.085 246.692 184.86 302.871C183.638 308.995 182.684 315.153 181.946 321.328H208.201C221.265 273.911 249.972 232.302 289.663 203.255Z" fill="white" fill-opacity="0.1"/>
<path d="M164.48 140.583C122.26 192.018 96.6026 255.03 90.8828 321.328H115.324C127.883 255.574 161.461 195.678 211.002 150.657C260.543 105.635 323.368 77.9239 390.02 71.6937C391.02 71.5897 398.234 70.9004 406.722 70.4937C410.751 70.3124 417.446 70.1298 419.33 70.1298C423.235 70.1298 427.133 70.2177 431.022 70.3777V20.2438C380.332 18.4461 329.911 28.369 283.681 49.2404C237.452 70.1119 196.663 101.369 164.487 140.579L164.48 140.583Z" fill="white" fill-opacity="0.1"/>
<path d="M419.33 201.329C384.889 201.304 351.513 213.265 324.927 235.159C298.342 257.054 280.204 287.517 273.625 321.324H304.608C314.586 301.835 329.376 285.218 347.576 273.047C365.775 260.876 386.782 253.554 408.604 251.776C412.167 251.437 415.746 251.285 419.326 251.321C423.234 251.322 427.138 251.556 431.019 252.02V201.801C427.137 201.494 423.24 201.329 419.33 201.329Z" fill="white" fill-opacity="0.1"/>
<path d="M94.4149 83.0293C38.8805 150.683 5.87113 233.997 0 321.328H23.4137C34.1002 248.104 64.9151 179.288 112.422 122.552C159.93 65.8166 222.262 23.3914 292.47 0.00732422H186.093C151.607 23.0091 120.713 50.986 94.4149 83.0293Z" fill="white" fill-opacity="0.1"/>
</g>
<defs>
<clipPath id="clip0_5509_74">
<rect width="431.017" height="321.335" fill="white"/>
</clipPath>
</defs>
</svg>
