<svg width="1617" height="695" viewBox="0 0 1617 695" fill="none" xmlns="http://www.w3.org/2000/svg">
<g opacity="0.15">
<path d="M1708.46 6.81948L1655.97 -112.711C1585.66 -81.5068 1526.09 -30.1075 1484.79 34.9842C1443.5 100.076 1422.34 175.935 1424 252.964C1425.65 329.993 1450.04 404.731 1494.08 467.723C1538.12 530.714 1599.84 579.128 1671.41 606.84C1742.99 634.552 1821.22 640.317 1896.19 623.404C1971.17 606.492 2039.53 567.662 2092.62 511.829C2145.71 455.995 2181.16 385.666 2194.46 309.739C2207.77 233.812 2198.34 155.699 2167.37 85.2826L2167.14 85.4122C2181.85 143.186 2181.02 203.888 2164.72 261.326C2148.43 318.765 2117.25 370.885 2074.37 412.37C2031.5 453.855 1978.45 483.22 1920.65 497.469C1862.86 511.719 1802.37 510.343 1745.37 493.482C1736.36 490.948 1727.5 487.943 1718.81 484.48C1671.27 466.113 1630.27 433.991 1601.01 392.178C1571.75 350.366 1555.53 300.746 1554.43 249.599C1553.32 198.453 1567.36 148.082 1594.78 104.863C1622.2 61.645 1661.77 27.5235 1708.46 6.81948Z" fill="url(#paint0_linear_562_1292)"/>
<path d="M1233.03 14.4408C1195.69 110.639 1182.56 214.521 1194.78 316.886C1207.01 419.252 1244.22 516.94 1303.12 601.3C1362.03 685.659 1440.8 754.085 1532.47 800.517C1624.14 846.948 1725.87 869.953 1828.66 867.492C1931.45 865.031 2032.12 837.182 2121.75 786.41C2211.38 735.638 2287.21 663.511 2342.53 576.417C2397.84 489.324 2430.92 389.952 2438.85 287.105C2446.78 184.257 2429.3 81.1071 2387.98 -13.2077C2420.49 85.8122 2425.43 191.929 2402.28 293.718C2379.13 395.508 2328.77 489.115 2256.6 564.464C2184.43 639.812 2093.2 694.048 1992.73 721.333C1892.26 748.617 1786.35 747.917 1686.4 719.308C1587.63 692.803 1499.57 636.19 1434.37 557.274C1369.17 478.357 1330.04 381.025 1322.37 278.696C1314.71 176.367 1338.88 74.081 1391.56 -14.0597C1444.24 -102.2 1522.83 -171.855 1616.51 -213.42L1564 -332.951C1488.8 -299.709 1420.85 -251.906 1364.05 -192.289C1307.25 -132.672 1262.72 -62.4159 1233.03 14.4408Z" fill="url(#paint1_linear_562_1292)"/>
<path d="M792.116 -155.846C726.482 13.3321 703.424 196.023 724.987 376.034C746.551 556.044 812.069 727.815 915.734 876.122C1019.4 1024.43 1158.01 1144.69 1319.28 1226.25C1480.55 1307.8 1659.5 1348.14 1840.27 1343.67C2021.04 1339.2 2198.04 1290.08 2355.59 1200.65C2513.14 1111.21 2646.37 984.239 2743.47 830.973C2840.57 677.708 2898.54 502.887 2912.25 322.004C2925.96 141.122 2894.98 -40.2335 2822.05 -205.989L2821.98 -205.798C2893.99 -16.392 2909.58 190.062 2866.86 388.505C2824.14 586.949 2724.95 768.848 2581.32 912.126C2437.7 1055.4 2255.81 1153.9 2057.75 1195.65C1859.68 1237.41 1653.95 1220.63 1465.53 1147.36C1286.93 1078.31 1132.91 957.611 1022.97 800.532C913.037 643.452 852.124 457.057 847.943 264.941C843.762 72.8237 896.503 -116.378 999.488 -278.715C1102.47 -441.052 1251.07 -569.226 1426.48 -647.014L1373.97 -766.59C1241.78 -708.128 1122.32 -624.079 1022.47 -519.27C922.616 -414.46 844.333 -290.955 792.116 -155.846Z" fill="url(#paint2_linear_562_1292)"/>
<path d="M1013.16 -69.9734C961.765 62.5356 943.761 205.644 960.746 346.668C977.731 487.692 1029.18 622.277 1110.54 738.494C1191.89 854.712 1300.64 948.973 1427.14 1012.92C1553.65 1076.87 1694 1108.54 1835.76 1105.11C1977.52 1101.68 2116.31 1063.27 2239.83 993.275C2363.35 923.28 2467.79 823.864 2543.88 703.84C2619.98 583.816 2665.38 446.89 2676.07 305.196C2686.76 163.503 2662.41 21.419 2605.16 -108.463L2604.9 -108.346C2655.81 31.684 2667.1 183.156 2637.51 329.354C2607.93 475.552 2538.63 610.793 2437.26 720.152C2335.88 829.511 2206.38 908.736 2063.03 949.086C1919.69 989.436 1768.08 989.341 1624.93 948.812C1622.39 948.122 1604.16 942.998 1583.09 935.973C1573.1 932.615 1556.61 926.743 1552.01 924.965C1417.11 872.801 1300.75 781.679 1217.66 663.132C1134.58 544.584 1088.51 403.94 1085.28 259.001C1082.05 114.061 1121.81 -28.6591 1199.53 -151.096C1277.24 -273.532 1389.42 -370.182 1521.86 -428.811L1469.29 -548.228C1365.63 -502.49 1271.96 -436.694 1193.68 -354.619C1115.41 -272.545 1054.06 -175.81 1013.16 -69.9734Z" fill="url(#paint3_linear_562_1292)"/>
</g>
<defs>
<linearGradient id="paint0_linear_562_1292" x1="1671.41" y1="606.84" x2="1400.13" y2="-100.883" gradientUnits="userSpaceOnUse">
<stop stop-color="#E8A000"/>
<stop offset="1" stop-color="#E8A000" stop-opacity="0"/>
</linearGradient>
<linearGradient id="paint1_linear_562_1292" x1="1588.98" y1="825.69" x2="1202.63" y2="-82.3275" gradientUnits="userSpaceOnUse">
<stop stop-color="#548D23"/>
<stop offset="1" stop-color="#4D8D23" stop-opacity="0"/>
</linearGradient>
<linearGradient id="paint2_linear_562_1292" x1="1418.01" y1="1270.19" x2="802.863" y2="-89.0027" gradientUnits="userSpaceOnUse">
<stop stop-color="#00839F"/>
<stop offset="1" stop-color="#00839F" stop-opacity="0"/>
</linearGradient>
<linearGradient id="paint3_linear_562_1292" x1="1504.58" y1="1047.39" x2="1036.15" y2="-72.6404" gradientUnits="userSpaceOnUse">
<stop stop-color="#4C164A"/>
<stop offset="1" stop-color="#4C164A" stop-opacity="0"/>
</linearGradient>
</defs>
</svg>
